<?xml version="1.0" encoding="UTF-8" standalone="no"?>
<!-- Created with Inkscape (http://www.inkscape.org/) -->

<svg
   version="1.1"
   id="svg2"
   xml:space="preserve"
   width="500.94299"
   height="110.97813"
   viewBox="0 0 500.94299 110.97814"
   xmlns="http://www.w3.org/2000/svg"
   xmlns:svg="http://www.w3.org/2000/svg"><defs
     id="defs6"><clipPath
       clipPathUnits="userSpaceOnUse"
       id="clipPath16"><path
         d="M 0,432.584 H 506.58 V 0 H 0 Z"
         id="path14" /></clipPath></defs><g
     id="g8"
     transform="matrix(1.3333333,0,0,-1.3333333,-177.24866,184.48626)"><g
       id="g12"
       clip-path="url(#clipPath16)"><g
         id="g1417"
         transform="matrix(1.5452685,0,0,1.4905234,-70.419604,-68.21554)"><g
           id="g646"
           transform="translate(132.9365,86.7148)"><path
             d="m 0,0 h 1.01 c 0.038,-0.273 0.149,-0.475 0.334,-0.606 0.184,-0.132 0.451,-0.198 0.8,-0.198 0.297,0 0.522,0.053 0.672,0.158 0.151,0.106 0.226,0.263 0.226,0.47 0,0.301 -0.433,0.551 -1.3,0.749 C 1.731,0.576 1.721,0.578 1.712,0.58 1.689,0.584 1.655,0.593 1.607,0.604 1.143,0.706 0.812,0.819 0.614,0.945 0.439,1.058 0.305,1.209 0.212,1.399 0.12,1.589 0.074,1.814 0.074,2.073 c 0,0.484 0.164,0.855 0.493,1.113 0.329,0.257 0.804,0.387 1.425,0.387 0.581,0 1.035,-0.138 1.363,-0.412 0.327,-0.275 0.5,-0.662 0.518,-1.162 H 2.891 C 2.873,2.239 2.78,2.423 2.613,2.549 2.447,2.675 2.209,2.738 1.901,2.738 1.633,2.738 1.427,2.686 1.281,2.582 1.136,2.477 1.063,2.328 1.063,2.134 1.063,1.871 1.346,1.674 1.911,1.543 2.064,1.507 2.184,1.479 2.269,1.458 2.631,1.366 2.889,1.294 3.041,1.243 3.193,1.19 3.325,1.133 3.438,1.07 3.64,0.958 3.792,0.808 3.893,0.623 3.995,0.437 4.045,0.215 4.045,-0.044 4.045,-0.562 3.871,-0.963 3.522,-1.248 3.173,-1.533 2.681,-1.676 2.046,-1.676 1.42,-1.676 0.929,-1.53 0.574,-1.24 0.218,-0.949 0.027,-0.536 0,0"
             style="fill:#3b6eab;fill-opacity:1;fill-rule:nonzero;stroke:none"
             id="path648" /></g><g
           id="g650"
           transform="translate(139.2974,87.6601)"><path
             d="m 0,0 c 0,-0.547 0.122,-0.973 0.365,-1.275 0.243,-0.303 0.583,-0.454 1.02,-0.454 0.441,0 0.784,0.151 1.03,0.454 C 2.66,-0.973 2.783,-0.547 2.783,0 2.783,0.547 2.66,0.972 2.415,1.274 2.169,1.578 1.826,1.729 1.385,1.729 0.948,1.729 0.608,1.578 0.365,1.276 0.122,0.975 0,0.549 0,0 m -1.043,0 c 0,0.804 0.219,1.441 0.657,1.913 0.438,0.472 1.028,0.708 1.771,0.708 0.743,0 1.334,-0.237 1.775,-0.71 C 3.6,1.438 3.82,0.801 3.82,0 3.82,-0.802 3.6,-1.439 3.16,-1.912 2.719,-2.384 2.128,-2.621 1.385,-2.621 c -0.743,0 -1.333,0.237 -1.771,0.709 -0.438,0.473 -0.657,1.11 -0.657,1.912"
             style="fill:#3b6eab;fill-opacity:1;fill-rule:nonzero;stroke:none"
             id="path652" /></g><g
           id="g654"
           transform="translate(144.5889,90.1655)"><path
             d="m 0,0 h 1.033 v -3.12 c 0,-0.385 0.076,-0.666 0.23,-0.843 0.153,-0.177 0.396,-0.265 0.729,-0.265 0.338,0 0.584,0.088 0.738,0.264 0.154,0.175 0.231,0.456 0.231,0.844 V 0 H 3.985 V -3.231 C 3.985,-3.842 3.814,-4.31 3.473,-4.636 3.132,-4.963 2.641,-5.126 2,-5.126 1.353,-5.126 0.858,-4.964 0.515,-4.638 0.171,-4.313 0,-3.844 0,-3.231 Z"
             style="fill:#3b6eab;fill-opacity:1;fill-rule:nonzero;stroke:none"
             id="path656" /></g><g
           id="g658"
           transform="translate(151.2979,85.1777)"><path
             d="M 0,0 V 4.086 H -1.476 V 4.975 H 2.489 V 4.086 H 1.023 V 0 Z"
             style="fill:#3b6eab;fill-opacity:1;fill-rule:nonzero;stroke:none"
             id="path660" /></g><g
           id="g662"
           transform="translate(155.0693,85.1777)"><path
             d="M 0,0 V 4.975 H 1.03 V 3.121 h 2.053 v 1.854 h 1.03 V 0 H 3.083 V 2.206 H 1.03 V 0 Z"
             style="fill:#3b6eab;fill-opacity:1;fill-rule:nonzero;stroke:none"
             id="path664" /></g><g
           id="g666"
           transform="translate(161.8672,85.1777)"><path
             d="m 0,0 -1.425,4.975 h 1.06 L 0.487,1.466 1.206,4.975 h 1.09 l 0.72,-3.509 0.851,3.509 h 1.05 L 3.496,0 H 2.52 L 1.75,3.809 0.976,0 Z"
             style="fill:#3b6eab;fill-opacity:1;fill-rule:nonzero;stroke:none"
             id="path668" /></g><g
           id="g670"
           transform="translate(168.0537,85.1777)"><path
             d="M 0,0 V 4.975 H 3.613 V 4.11 H 1.01 V 3.05 H 3.39 V 2.199 H 1.01 V 0.919 H 3.735 V 0 Z"
             style="fill:#3b6eab;fill-opacity:1;fill-rule:nonzero;stroke:none"
             id="path672" /></g><g
           id="g674"
           transform="translate(173.0308,86.7148)"><path
             d="m 0,0 h 1.01 c 0.038,-0.273 0.15,-0.475 0.334,-0.606 0.184,-0.132 0.451,-0.198 0.8,-0.198 0.297,0 0.522,0.053 0.672,0.158 0.151,0.106 0.226,0.263 0.226,0.47 0,0.301 -0.433,0.551 -1.3,0.749 C 1.731,0.576 1.721,0.578 1.712,0.58 1.689,0.584 1.655,0.593 1.607,0.604 1.144,0.706 0.812,0.819 0.614,0.945 0.439,1.058 0.305,1.209 0.212,1.399 0.121,1.589 0.074,1.814 0.074,2.073 c 0,0.484 0.164,0.855 0.493,1.113 0.329,0.257 0.804,0.387 1.426,0.387 0.58,0 1.034,-0.138 1.362,-0.412 0.328,-0.275 0.5,-0.662 0.519,-1.162 H 2.891 C 2.873,2.239 2.78,2.423 2.614,2.549 2.447,2.675 2.209,2.738 1.901,2.738 1.633,2.738 1.427,2.686 1.281,2.582 1.136,2.477 1.063,2.328 1.063,2.134 1.063,1.871 1.346,1.674 1.911,1.543 2.064,1.507 2.184,1.479 2.269,1.458 2.632,1.366 2.889,1.294 3.041,1.243 3.193,1.19 3.325,1.133 3.438,1.07 3.641,0.958 3.792,0.808 3.894,0.623 3.995,0.437 4.046,0.215 4.046,-0.044 4.046,-0.562 3.871,-0.963 3.522,-1.248 3.173,-1.533 2.681,-1.676 2.046,-1.676 1.42,-1.676 0.929,-1.53 0.574,-1.24 0.218,-0.949 0.027,-0.536 0,0"
             style="fill:#3b6eab;fill-opacity:1;fill-rule:nonzero;stroke:none"
             id="path676" /></g><g
           id="g678"
           transform="translate(179.5947,85.1777)"><path
             d="M 0,0 V 4.086 H -1.476 V 4.975 H 2.489 V 4.086 H 1.023 V 0 Z"
             style="fill:#3b6eab;fill-opacity:1;fill-rule:nonzero;stroke:none"
             id="path680" /></g><g
           id="g682"
           transform="translate(183.3662,85.1777)"><path
             d="M 0,0 V 4.975 H 3.613 V 4.11 H 1.01 V 3.05 H 3.39 V 2.199 H 1.01 V 0.919 H 3.735 V 0 Z"
             style="fill:#3b6eab;fill-opacity:1;fill-rule:nonzero;stroke:none"
             id="path684" /></g><g
           id="g686"
           transform="translate(189.5962,87.9775)"><path
             d="M 0,0 H 1.202 C 1.463,0 1.655,0.053 1.777,0.158 1.9,0.265 1.961,0.431 1.961,0.659 1.961,0.875 1.902,1.039 1.783,1.15 1.664,1.261 1.486,1.317 1.249,1.317 H 0 Z M -1.023,-2.8 V 2.175 H 1.388 C 1.93,2.175 2.332,2.059 2.593,1.827 2.854,1.595 2.985,1.241 2.985,0.763 2.985,0.459 2.921,0.206 2.794,0.003 2.667,-0.199 2.484,-0.338 2.246,-0.412 2.462,-0.489 2.615,-0.605 2.707,-0.763 2.797,-0.921 2.85,-1.167 2.864,-1.5 l 0.02,-0.587 v -0.021 c 0.007,-0.297 0.071,-0.477 0.192,-0.54 V -2.8 H 1.955 c -0.036,0.07 -0.063,0.156 -0.082,0.258 -0.02,0.103 -0.032,0.225 -0.036,0.367 l -0.013,0.524 c -0.012,0.308 -0.07,0.516 -0.175,0.624 -0.105,0.108 -0.293,0.162 -0.566,0.162 H 0 V -2.8 Z"
             style="fill:#3b6eab;fill-opacity:1;fill-rule:nonzero;stroke:none"
             id="path688" /></g><g
           id="g690"
           transform="translate(194.2017,85.1777)"><path
             d="M 0,0 V 4.975 H 1.07 L 3.09,1.557 V 4.975 H 4.1 V 0 H 3.043 L 1.01,3.418 V 0 Z"
             style="fill:#3b6eab;fill-opacity:1;fill-rule:nonzero;stroke:none"
             id="path692" /></g><g
           id="g694"
           transform="translate(202.665,90.1655)"><path
             d="m 0,0 h 1.033 v -3.12 c 0,-0.385 0.076,-0.666 0.23,-0.843 0.153,-0.177 0.396,-0.265 0.729,-0.265 0.338,0 0.584,0.088 0.738,0.264 0.154,0.175 0.231,0.456 0.231,0.844 V 0 H 3.985 V -3.231 C 3.985,-3.842 3.814,-4.31 3.473,-4.636 3.132,-4.963 2.641,-5.126 2,-5.126 1.353,-5.126 0.858,-4.964 0.515,-4.638 0.171,-4.313 0,-3.844 0,-3.231 Z"
             style="fill:#3b6eab;fill-opacity:1;fill-rule:nonzero;stroke:none"
             id="path696" /></g><g
           id="g698"
           transform="translate(208.3442,85.1777)"><path
             d="M 0,0 V 4.975 H 1.07 L 3.09,1.557 V 4.975 H 4.1 V 0 H 3.043 L 1.01,3.418 V 0 Z"
             style="fill:#3b6eab;fill-opacity:1;fill-rule:nonzero;stroke:none"
             id="path700" /></g><path
           d="m 214.196,90.152 h 1.023 v -4.975 h -1.023 z"
           style="fill:#3b6eab;fill-opacity:1;fill-rule:nonzero;stroke:none"
           id="path702" /><g
           id="g704"
           transform="translate(218.1465,85.1777)"><path
             d="m 0,0 -1.716,4.975 h 1.135 L 0.476,1.253 1.553,4.975 H 2.674 L 0.979,0 Z"
             style="fill:#3b6eab;fill-opacity:1;fill-rule:nonzero;stroke:none"
             id="path706" /></g><g
           id="g708"
           transform="translate(221.9922,85.1777)"><path
             d="M 0,0 V 4.975 H 3.613 V 4.11 H 1.01 V 3.05 H 3.39 V 2.199 H 1.01 V 0.919 H 3.735 V 0 Z"
             style="fill:#3b6eab;fill-opacity:1;fill-rule:nonzero;stroke:none"
             id="path710" /></g><g
           id="g712"
           transform="translate(228.2227,87.9775)"><path
             d="M 0,0 H 1.202 C 1.463,0 1.655,0.053 1.778,0.158 1.9,0.265 1.962,0.431 1.962,0.659 1.962,0.875 1.902,1.039 1.783,1.15 1.664,1.261 1.486,1.317 1.249,1.317 H 0 Z M -1.023,-2.8 V 2.175 H 1.388 C 1.93,2.175 2.332,2.059 2.594,1.827 2.854,1.595 2.985,1.241 2.985,0.763 2.985,0.459 2.921,0.206 2.794,0.003 2.667,-0.199 2.484,-0.338 2.246,-0.412 2.462,-0.489 2.616,-0.605 2.707,-0.763 2.798,-0.921 2.85,-1.167 2.864,-1.5 l 0.02,-0.587 v -0.021 c 0.007,-0.297 0.071,-0.477 0.192,-0.54 V -2.8 h -1.12 c -0.037,0.07 -0.064,0.156 -0.083,0.258 -0.02,0.103 -0.032,0.225 -0.036,0.367 l -0.013,0.524 c -0.012,0.308 -0.07,0.516 -0.175,0.624 -0.104,0.108 -0.293,0.162 -0.566,0.162 H 0 V -2.8 Z"
             style="fill:#3b6eab;fill-opacity:1;fill-rule:nonzero;stroke:none"
             id="path714" /></g><g
           id="g716"
           transform="translate(232.5986,86.7148)"><path
             d="m 0,0 h 1.01 c 0.038,-0.273 0.15,-0.475 0.334,-0.606 0.185,-0.132 0.451,-0.198 0.801,-0.198 0.296,0 0.521,0.053 0.671,0.158 0.151,0.106 0.226,0.263 0.226,0.47 0,0.301 -0.433,0.551 -1.299,0.749 C 1.731,0.576 1.721,0.578 1.712,0.58 1.689,0.584 1.655,0.593 1.607,0.604 1.144,0.706 0.812,0.819 0.614,0.945 0.439,1.058 0.305,1.209 0.212,1.399 0.121,1.589 0.074,1.814 0.074,2.073 c 0,0.484 0.164,0.855 0.493,1.113 0.329,0.257 0.804,0.387 1.426,0.387 0.58,0 1.034,-0.138 1.362,-0.412 0.328,-0.275 0.5,-0.662 0.519,-1.162 H 2.891 C 2.873,2.239 2.781,2.423 2.614,2.549 2.447,2.675 2.209,2.738 1.901,2.738 1.633,2.738 1.427,2.686 1.281,2.582 1.136,2.477 1.063,2.328 1.063,2.134 1.063,1.871 1.346,1.674 1.911,1.543 2.064,1.507 2.184,1.479 2.269,1.458 2.632,1.366 2.889,1.294 3.041,1.243 3.193,1.19 3.325,1.133 3.438,1.07 3.641,0.958 3.792,0.808 3.894,0.623 3.995,0.437 4.046,0.215 4.046,-0.044 4.046,-0.562 3.871,-0.963 3.522,-1.248 3.173,-1.533 2.681,-1.676 2.046,-1.676 1.42,-1.676 0.93,-1.53 0.574,-1.24 0.218,-0.949 0.027,-0.536 0,0"
             style="fill:#3b6eab;fill-opacity:1;fill-rule:nonzero;stroke:none"
             id="path718" /></g><path
           d="m 238.167,90.152 h 1.023 v -4.975 h -1.023 z"
           style="fill:#3b6eab;fill-opacity:1;fill-rule:nonzero;stroke:none"
           id="path720" /><g
           id="g722"
           transform="translate(241.978,85.1777)"><path
             d="M 0,0 V 4.086 H -1.476 V 4.975 H 2.489 V 4.086 H 1.023 V 0 Z"
             style="fill:#3b6eab;fill-opacity:1;fill-rule:nonzero;stroke:none"
             id="path724" /></g><g
           id="g726"
           transform="translate(247.9751,85.1777)"><path
             d="M 0,0 H -1.023 V 1.854 L -2.83,4.975 h 1.253 L -0.513,2.83 0.47,4.975 H 1.638 L 0,1.854 Z"
             style="fill:#3b6eab;fill-opacity:1;fill-rule:nonzero;stroke:none"
             id="path728" /></g><g
           id="g730"
           transform="translate(254.2471,87.6601)"><path
             d="m 0,0 c 0,-0.547 0.121,-0.973 0.364,-1.275 0.243,-0.303 0.583,-0.454 1.02,-0.454 0.441,0 0.785,0.151 1.03,0.454 C 2.659,-0.973 2.782,-0.547 2.782,0 2.782,0.547 2.659,0.972 2.414,1.274 2.169,1.578 1.825,1.729 1.384,1.729 0.947,1.729 0.607,1.578 0.364,1.276 0.121,0.975 0,0.549 0,0 m -1.043,0 c 0,0.804 0.218,1.441 0.656,1.913 0.438,0.472 1.028,0.708 1.771,0.708 0.743,0 1.334,-0.237 1.775,-0.71 0.44,-0.473 0.66,-1.11 0.66,-1.911 0,-0.802 -0.22,-1.439 -0.66,-1.912 -0.441,-0.472 -1.032,-0.709 -1.775,-0.709 -0.743,0 -1.333,0.237 -1.771,0.709 -0.438,0.473 -0.656,1.11 -0.656,1.912"
             style="fill:#3b6eab;fill-opacity:1;fill-rule:nonzero;stroke:none"
             id="path732" /></g><g
           id="g734"
           transform="translate(259.5679,85.1777)"><path
             d="M 0,0 V 4.975 H 3.472 V 4.11 H 1.01 V 2.982 H 3.167 V 2.117 H 1.01 V 0 Z"
             style="fill:#3b6eab;fill-opacity:1;fill-rule:nonzero;stroke:none"
             id="path736" /></g><g
           id="g738"
           transform="translate(267.0718,85.1777)"><path
             d="M 0,0 V 4.975 H 3.472 V 4.11 H 1.01 V 2.982 H 3.168 V 2.117 H 1.01 V 0 Z"
             style="fill:#3b6eab;fill-opacity:1;fill-rule:nonzero;stroke:none"
             id="path740" /></g><path
           d="m 271.935,90.152 h 1.023 v -4.975 h -1.023 z"
           style="fill:#3b6eab;fill-opacity:1;fill-rule:nonzero;stroke:none"
           id="path742" /><g
           id="g744"
           transform="translate(274.7158,85.1777)"><path
             d="M 0,0 V 4.975 H 1.071 L 3.09,1.557 V 4.975 H 4.101 V 0 H 3.043 L 1.01,3.418 V 0 Z"
             style="fill:#3b6eab;fill-opacity:1;fill-rule:nonzero;stroke:none"
             id="path746" /></g><g
           id="g748"
           transform="translate(282.3853,89.1557)"><path
             d="M 0,0 -0.689,-2.117 H 0.692 Z M -0.594,0.997 H 0.587 L 2.381,-3.978 H 1.307 l -0.338,1.023 h -1.928 l -0.327,-1.023 h -1.078 z"
             style="fill:#3b6eab;fill-opacity:1;fill-rule:nonzero;stroke:none"
             id="path750" /></g><g
           id="g752"
           transform="translate(285.9697,85.1777)"><path
             d="M 0,0 V 4.975 H 1.071 L 3.09,1.557 V 4.975 H 4.101 V 0 H 3.043 L 1.01,3.418 V 0 Z"
             style="fill:#3b6eab;fill-opacity:1;fill-rule:nonzero;stroke:none"
             id="path754" /></g><g
           id="g756"
           transform="translate(296.1177,86.8862)"><path
             d="m 0,0 c -0.038,-0.564 -0.255,-1.014 -0.653,-1.347 -0.397,-0.334 -0.916,-0.5 -1.555,-0.5 -0.736,0 -1.309,0.23 -1.717,0.689 -0.409,0.459 -0.614,1.103 -0.614,1.932 0,0.846 0.209,1.495 0.626,1.945 0.416,0.45 1.015,0.676 1.796,0.676 0.635,0 1.137,-0.155 1.504,-0.465 0.368,-0.309 0.571,-0.747 0.606,-1.312 h -1.009 c -0.043,0.281 -0.157,0.496 -0.344,0.643 -0.187,0.148 -0.44,0.221 -0.757,0.221 -0.45,0 -0.792,-0.145 -1.027,-0.435 -0.234,-0.291 -0.35,-0.715 -0.35,-1.273 0,-0.541 0.116,-0.959 0.349,-1.253 0.233,-0.295 0.564,-0.442 0.995,-0.442 0.31,0 0.565,0.079 0.762,0.237 0.199,0.159 0.327,0.387 0.386,0.684 z"
             style="fill:#3b6eab;fill-opacity:1;fill-rule:nonzero;stroke:none"
             id="path758" /></g><g
           id="g760"
           transform="translate(297.627,85.1777)"><path
             d="M 0,0 V 4.975 H 3.614 V 4.11 H 1.011 V 3.05 H 3.392 V 2.199 H 1.011 V 0.919 H 3.735 V 0 Z"
             style="fill:#3b6eab;fill-opacity:1;fill-rule:nonzero;stroke:none"
             id="path762" /></g><g
           id="g764"
           transform="translate(307.3604,89.1557)"><path
             d="m 0,0 -0.689,-2.117 h 1.38 z M -0.595,0.997 H 0.587 L 2.381,-3.978 H 1.307 L 0.969,-2.955 H -0.96 l -0.326,-1.023 h -1.078 z"
             style="fill:#3b6eab;fill-opacity:1;fill-rule:nonzero;stroke:none"
             id="path766" /></g><g
           id="g768"
           transform="translate(310.9453,85.1777)"><path
             d="m 0,0 v 4.975 h 1.071 l 2.02,-3.418 v 3.418 h 1.01 V 0 H 3.044 L 1.011,3.418 V 0 Z"
             style="fill:#3b6eab;fill-opacity:1;fill-rule:nonzero;stroke:none"
             id="path770" /></g><g
           id="g772"
           transform="translate(317.7666,86.0756)"><path
             d="M 0,0 H 0.82 C 1.296,0 1.64,0.125 1.852,0.374 2.065,0.622 2.171,1.026 2.171,1.584 2.171,2.141 2.072,2.549 1.874,2.81 1.676,3.071 1.366,3.202 0.945,3.202 H 0 Z M -1.004,-0.898 V 4.077 H 0.945 C 1.709,4.077 2.277,3.871 2.652,3.458 3.027,3.046 3.215,2.422 3.215,1.584 3.215,1.129 3.146,0.729 3.007,0.382 2.869,0.036 2.668,-0.244 2.404,-0.456 2.206,-0.613 1.981,-0.726 1.729,-0.795 1.477,-0.864 1.124,-0.898 0.669,-0.898 Z"
             style="fill:#3b6eab;fill-opacity:1;fill-rule:nonzero;stroke:none"
             id="path774" /></g><g
           id="g776"
           transform="translate(325.1592,85.1777)"><path
             d="M 0,0 V 4.975 H 3.613 V 4.11 H 1.01 V 3.05 H 3.391 V 2.199 H 1.01 V 0.919 H 3.735 V 0 Z"
             style="fill:#3b6eab;fill-opacity:1;fill-rule:nonzero;stroke:none"
             id="path778" /></g><g
           id="g780"
           transform="translate(334.6963,86.8862)"><path
             d="m 0,0 c -0.038,-0.564 -0.256,-1.014 -0.653,-1.347 -0.398,-0.334 -0.916,-0.5 -1.556,-0.5 -0.735,0 -1.309,0.23 -1.717,0.689 -0.409,0.459 -0.613,1.103 -0.613,1.932 0,0.846 0.208,1.495 0.625,1.945 0.416,0.45 1.016,0.676 1.797,0.676 0.635,0 1.136,-0.155 1.504,-0.465 0.368,-0.309 0.571,-0.747 0.606,-1.312 h -1.01 c -0.043,0.281 -0.157,0.496 -0.344,0.643 -0.187,0.148 -0.44,0.221 -0.756,0.221 -0.45,0 -0.792,-0.145 -1.028,-0.435 -0.233,-0.291 -0.35,-0.715 -0.35,-1.273 0,-0.541 0.117,-0.959 0.349,-1.253 0.234,-0.295 0.564,-0.442 0.996,-0.442 0.309,0 0.564,0.079 0.761,0.237 0.2,0.159 0.327,0.387 0.386,0.684 z"
             style="fill:#3b6eab;fill-opacity:1;fill-rule:nonzero;stroke:none"
             id="path782" /></g><g
           id="g784"
           transform="translate(337.0322,87.6601)"><path
             d="m 0,0 c 0,-0.547 0.122,-0.973 0.364,-1.275 0.244,-0.303 0.584,-0.454 1.021,-0.454 0.441,0 0.785,0.151 1.029,0.454 C 2.66,-0.973 2.782,-0.547 2.782,0 2.782,0.547 2.66,0.972 2.414,1.274 2.17,1.578 1.826,1.729 1.385,1.729 0.948,1.729 0.608,1.578 0.364,1.276 0.122,0.975 0,0.549 0,0 m -1.043,0 c 0,0.804 0.218,1.441 0.656,1.913 0.438,0.472 1.029,0.708 1.772,0.708 0.742,0 1.334,-0.237 1.774,-0.71 C 3.6,1.438 3.82,0.801 3.82,0 3.82,-0.802 3.6,-1.439 3.159,-1.912 2.719,-2.384 2.127,-2.621 1.385,-2.621 c -0.743,0 -1.334,0.237 -1.772,0.709 -0.438,0.473 -0.656,1.11 -0.656,1.912"
             style="fill:#3b6eab;fill-opacity:1;fill-rule:nonzero;stroke:none"
             id="path786" /></g><g
           id="g788"
           transform="translate(342.3535,85.1777)"><path
             d="m 0,0 v 4.975 h 1.071 l 2.02,-3.418 v 3.418 h 1.01 V 0 H 3.043 L 1.011,3.418 V 0 Z"
             style="fill:#3b6eab;fill-opacity:1;fill-rule:nonzero;stroke:none"
             id="path790" /></g><g
           id="g792"
           transform="translate(348.999,87.6601)"><path
             d="m 0,0 c 0,-0.547 0.121,-0.973 0.364,-1.275 0.244,-0.303 0.583,-0.454 1.021,-0.454 0.441,0 0.784,0.151 1.029,0.454 C 2.66,-0.973 2.782,-0.547 2.782,0 2.782,0.547 2.66,0.972 2.414,1.274 2.169,1.578 1.826,1.729 1.385,1.729 0.947,1.729 0.608,1.578 0.364,1.276 0.121,0.975 0,0.549 0,0 m -1.043,0 c 0,0.804 0.218,1.441 0.656,1.913 0.438,0.472 1.029,0.708 1.772,0.708 0.742,0 1.334,-0.237 1.774,-0.71 C 3.6,1.438 3.819,0.801 3.819,0 3.819,-0.802 3.6,-1.439 3.159,-1.912 2.719,-2.384 2.127,-2.621 1.385,-2.621 c -0.743,0 -1.334,0.237 -1.772,0.709 -0.438,0.473 -0.656,1.11 -0.656,1.912"
             style="fill:#3b6eab;fill-opacity:1;fill-rule:nonzero;stroke:none"
             id="path794" /></g><g
           id="g796"
           transform="translate(354.3203,85.1777)"><path
             d="M 0,0 V 4.975 H 1.514 L 2.503,1.189 3.479,4.975 H 4.998 V 0 H 4.04 V 4.012 L 3.029,0 H 1.983 L 0.959,4.012 V 0 Z"
             style="fill:#3b6eab;fill-opacity:1;fill-rule:nonzero;stroke:none"
             id="path798" /></g><path
           d="m 361.078,90.152 h 1.023 v -4.975 h -1.023 z"
           style="fill:#3b6eab;fill-opacity:1;fill-rule:nonzero;stroke:none"
           id="path800" /><g
           id="g802"
           transform="translate(368.1885,86.8862)"><path
             d="m 0,0 c -0.038,-0.564 -0.255,-1.014 -0.652,-1.347 -0.398,-0.334 -0.916,-0.5 -1.556,-0.5 -0.736,0 -1.309,0.23 -1.717,0.689 -0.409,0.459 -0.614,1.103 -0.614,1.932 0,0.846 0.209,1.495 0.626,1.945 0.416,0.45 1.015,0.676 1.796,0.676 0.636,0 1.137,-0.155 1.505,-0.465 0.368,-0.309 0.57,-0.747 0.605,-1.312 h -1.009 c -0.043,0.281 -0.157,0.496 -0.344,0.643 -0.187,0.148 -0.44,0.221 -0.757,0.221 -0.45,0 -0.792,-0.145 -1.027,-0.435 -0.234,-0.291 -0.35,-0.715 -0.35,-1.273 0,-0.541 0.116,-0.959 0.349,-1.253 0.233,-0.295 0.564,-0.442 0.995,-0.442 0.31,0 0.565,0.079 0.762,0.237 0.2,0.159 0.327,0.387 0.386,0.684 z"
             style="fill:#3b6eab;fill-opacity:1;fill-rule:nonzero;stroke:none"
             id="path804" /></g><g
           id="g806"
           transform="translate(369.5977,86.7148)"><path
             d="m 0,0 h 1.009 c 0.038,-0.273 0.15,-0.475 0.335,-0.606 0.184,-0.132 0.451,-0.198 0.801,-0.198 0.296,0 0.52,0.053 0.671,0.158 0.151,0.106 0.226,0.263 0.226,0.47 0,0.301 -0.434,0.551 -1.3,0.749 C 1.73,0.576 1.721,0.578 1.712,0.58 1.689,0.584 1.654,0.593 1.607,0.604 1.144,0.706 0.812,0.819 0.614,0.945 0.438,1.058 0.305,1.209 0.212,1.399 0.12,1.589 0.074,1.814 0.074,2.073 c 0,0.484 0.164,0.855 0.492,1.113 0.33,0.257 0.804,0.387 1.426,0.387 0.581,0 1.035,-0.138 1.362,-0.412 C 3.683,2.886 3.855,2.499 3.873,1.999 H 2.891 C 2.873,2.239 2.78,2.423 2.613,2.549 2.447,2.675 2.209,2.738 1.9,2.738 1.633,2.738 1.426,2.686 1.281,2.582 1.137,2.477 1.063,2.328 1.063,2.134 1.063,1.871 1.346,1.674 1.91,1.543 2.064,1.507 2.184,1.479 2.269,1.458 2.631,1.366 2.889,1.294 3.041,1.243 3.193,1.19 3.325,1.133 3.438,1.07 3.641,0.958 3.792,0.808 3.894,0.623 3.994,0.437 4.046,0.215 4.046,-0.044 4.046,-0.562 3.871,-0.963 3.521,-1.248 3.173,-1.533 2.681,-1.676 2.046,-1.676 1.42,-1.676 0.93,-1.53 0.573,-1.24 0.218,-0.949 0.026,-0.536 0,0"
             style="fill:#3b6eab;fill-opacity:1;fill-rule:nonzero;stroke:none"
             id="path808" /></g><g
           id="g810"
           transform="translate(365.791,128.5107)"><path
             d="M 0,0 C -1.046,-0.596 -1.819,-0.342 -1.964,0.972 -1.204,1.64 -0.472,2.32 0.222,3.021 0.475,3.334 0.224,3.685 0.003,4.033 -0.292,4.728 0.009,5.069 1.18,4.894 1.806,4.771 2.108,4.437 1.701,3.646 1.05,2.447 0.483,1.232 0,0 M -4.225,-2.345 C -4.5,-2.583 -5.03,-2.566 -5.598,-2.514 c -0.094,0.61 -0.076,1.192 0.022,1.753 0.475,0.226 0.975,0.282 1.499,0.169 0.489,-0.558 0.377,-1.146 -0.148,-1.753 m 2.007,-1.225 c -0.401,0.514 -0.338,1.028 -0.063,1.542 0.386,0.276 0.834,0.384 1.415,0.127 0.901,-0.572 1.304,-1.037 0.613,-1.267 -0.608,-0.323 -1.261,-0.468 -1.965,-0.402 m -9.031,-1.878 c 0.283,0.322 0.645,0.451 1.12,0.299 0.206,-0.405 0.197,-0.795 -0.024,-1.171 -0.372,-0.334 -0.768,-0.338 -1.171,-0.224 -0.156,0.385 -0.234,0.76 0.075,1.096 m 4.942,10.087 c 0,0.213 0.603,1.004 0.497,1.987 l -0.143,1.612 c -0.473,0.2 -0.526,1.616 -2.216,1.616 -0.49,0 -0.088,-3.658 -0.87,-3.973 0,-1.067 -0.621,-1.953 -0.621,-3.104 V 2.28 c 0.517,-0.209 0.471,-1.365 1.118,-1.365 0.453,0 0.706,0.279 0.745,0.745 0.353,0.082 0.876,0.372 0.994,0.372 0.204,0 0.403,-0.357 0.496,-0.497 L -6.881,-0.836 -7.3,-0.824 c -0.455,0 -1.397,0.579 -1.636,0.848 -0.61,0.69 -0.988,0.27 -1.965,0.27 v 2.483 c -0.558,0.148 -0.887,0.745 -1.492,0.745 h -0.62 c -0.58,0 -1.242,-0.48 -1.242,-1.118 V 2.28 c 0,-0.263 1.614,-0.929 1.614,-1.738 V 0.169 l -0.297,-7.695 -0.242,-0.473 -0.951,-0.026 c 0,0.811 0.248,0.788 0.248,1.49 v 1.241 l -0.143,1.612 -0.134,-0.041 -0.286,1.018 -0.403,0.31 -0.027,0.454 c 0,0.559 -0.445,1.591 -0.993,1.738 l -0.258,-1.985 -0.366,-0.119 c 0.003,-1.043 -0.37,-1.374 -0.37,-2.49 v -0.248 l 0.148,-2.606 c 0.338,-0.099 1.094,-1.021 1.094,-1.244 0,-0.337 -2.666,-1.489 -2.981,-1.489 -0.334,0 -1.156,2.607 -1.863,2.607 h -0.372 c -0.136,-0.584 -0.292,-1.336 -0.87,-1.49 -0.016,-0.721 -0.372,-1.078 -0.372,-2.11 v -0.622 l 0.148,-2.605 0.224,-0.001 v -0.373 c 0,-0.279 0.099,-0.273 0.249,-0.497 0,-2.038 0.888,-1.717 0.993,-2.98 h 0.373 v -0.373 h 0.621 l -0.057,0.116 0.644,0.324 0.396,1.1 0.161,-0.05 0.172,4.72 1.913,-10e-4 c 0.885,0 1.062,0.801 1.631,1.101 0.61,0.325 1.173,0.47 1.798,0.808 0.739,0.399 0.908,0.693 1.903,0.831 0.017,0.002 1.792,0.733 1.842,0.766 1.178,0.78 2.166,1.218 3.423,1.915 0.512,0.284 1.216,0.628 1.734,0.875 0.588,0.28 0.545,0.078 1.184,0.18 0.387,0.063 0.666,0.353 0.891,0.353 h 0.87 c 0.14,0.346 0.367,0.372 0.869,0.372 h 0.372 c 0.291,0 0.496,-0.206 0.496,-0.497 0,-0.294 -0.76,-0.934 -1.052,-1.057 -0.387,-0.164 -1.357,-0.445 -1.56,-0.551 -0.284,-0.147 -0.32,-0.353 -0.612,-0.506 -0.301,-0.158 -0.378,-0.076 -0.728,-0.266 -0.252,-0.136 -0.49,-0.36 -0.674,-0.443 -0.222,-0.1 -0.499,-0.119 -0.754,-0.24 -0.495,-0.234 -2.535,-1.316 -2.839,-1.383 -0.691,-0.152 -2.91,-0.669 -3.081,-1.141 -0.52,0 -2.112,0.026 -2.112,-0.497 v -0.496 c 0.12,-0.013 1.739,-1.075 1.988,-1.242 l 1.486,-0.156 0.128,0.032 c 0.721,0 0.696,0.496 1.739,0.496 l 0.551,0.434 0.442,0.063 c 0.477,0 0.617,1.082 2.236,1.118 v -0.497 c 0,-0.087 -1.171,-1.979 -1.334,-2.143 -0.498,-0.499 -1.335,-1.21 -2.268,-1.21 v -0.372 c 0,-0.347 0.994,-0.537 0.994,-1.738 v -1.242 c 0,-0.3 -0.569,-0.868 -0.87,-0.868 h -0.372 c -0.208,-0.516 -3.756,-1.739 -4.72,-1.739 -0.395,-0.265 -0.693,-0.497 -1.366,-0.497 h -1.117 c -0.082,-0.352 -0.125,-0.212 -0.125,-0.496 0,-0.434 0.723,-0.63 0.87,-0.993 1.279,0 0.952,-0.367 1.86,-0.499 0.62,-0.091 1.313,-0.191 1.369,-0.867 0.279,-0.065 0.286,-0.124 0.621,-0.124 h 0.372 c 1.094,0 0.373,0.643 1.662,1.07 0.716,0.236 1.149,0.543 2.064,0.543 h 0.372 v -2.234 h -0.248 v -0.249 l -0.069,-0.145 -1.809,0.859 0.335,-4.807 c 0.114,-0.28 0.393,-0.873 0.798,-0.873 0.966,0 1.133,0.366 1.781,0.703 0.65,0.34 0.467,1.018 1.2,1.283 v 0.373 c 0,0.393 0.266,0.216 0.426,0.939 0.156,0.697 -0.019,0.418 0.319,0.923 l 0.27,4.593 0.227,10e-4 v 0.373 c 0.747,0.174 2.267,0.869 2.732,0.869 h 1.863 c 0.213,0.525 0.994,0.298 0.994,1.366 v 1.986 c 0,0.657 -0.473,0.851 -0.621,1.49 H 0.771 c -0.684,0 -2.814,-1.49 -3.228,-1.49 h -0.497 c -0.394,0 -0.624,1.218 -0.62,1.242 l 0.145,0.99 c 0.149,0.048 1.49,1.42 1.668,1.667 0.277,0.379 1.042,1.793 1.042,2.31 v 0.744 c 0,0.761 -0.553,0.815 -0.62,1.614 l 0.545,0.313 0.697,0.06 0.266,0.357 c 0.949,0.015 1.326,0.334 2.167,0.563 0.655,0.179 1.607,0.146 2.336,0.272 1.681,0.289 3.18,0.098 3.18,2.036 v 0.373 c 0,1.048 -0.327,2.741 -1.491,2.608 L 3.509,-2.602 3.38,-2.562 c -0.392,0 -1.053,0.073 -0.993,0.497 l 0.387,3.226 c 0.685,0.47 1.212,2.908 2.593,3.23 v 0.497 c 0,1.63 -1.832,4.097 -3.353,4.097 -0.402,0 -1.857,-1.244 -1.987,-1.49 L -3.522,6.347 -4.02,6.053 -4.071,5.757 c 0,-0.337 0.957,-1.715 1.366,-1.862 V 3.397 c 0,-0.706 -0.651,-2.855 -1.242,-2.855 h -0.248 c -0.402,0 -0.621,0.451 -0.621,0.869 v 0.621 c 0,0.835 0.621,0.584 0.621,1.738 v 0.497 h -2.112 z m -4.098,-8.071 c 0,0.582 0.378,1.615 1.118,1.615 h 0.248 c 0.278,0 0.272,-0.099 0.497,-0.248 0.432,0 0.745,0.075 0.745,-0.373 v -0.497 c 0,-0.184 -0.402,-1.986 -0.621,-1.986 -1.36,0 -1.324,0.443 -1.987,0.621 z"
             style="fill:#3c73b5;fill-opacity:1;fill-rule:evenodd;stroke:none"
             id="path812" /></g><g
           id="g814"
           transform="translate(320.7881,126.2021)"><path
             d="m 0,0 c -0.666,0.375 -0.036,0.441 -1.03,0.833 -0.383,0.15 -1.084,0.308 -1.555,0.308 H -2.71 c -0.335,0 -0.496,-0.33 -0.496,-0.621 0,-0.597 0.034,-1.447 0.496,-1.614 l 0.277,-2.852 c 0.048,-0.67 -0.287,-1.819 -0.276,-2.737 0.026,-2.175 -0.898,-0.714 -0.994,-1.861 -0.443,-0.01 -1.81,-0.359 -2.263,-0.47 -0.551,-0.134 -1.894,-0.178 -2.084,-0.648 -1.088,0 -1.755,-0.372 -2.484,-0.372 h -0.62 v -0.248 h -1.367 c -0.503,0 -1.118,-0.134 -1.118,-0.621 v -0.248 c 0,-1.351 0.848,-1.246 0.87,-2.235 0.403,-0.214 1.242,-0.993 1.738,-0.993 h 0.746 c 0.202,0 0.835,0.194 1.343,0.271 0.976,0.147 0.437,0.38 0.751,0.739 0.104,0.119 2.158,0.727 2.377,0.727 h 0.621 v 0.373 c 0.278,0.065 0.285,0.124 0.621,0.124 h 0.993 c 0.286,0 0.373,-0.086 0.373,-0.372 v -1.118 l -1.305,-2.326 c -0.126,-0.083 -2.223,-2.113 -2.596,-2.465 -1.18,-1.11 -1.815,-1.208 -3.054,-2.037 -1.177,0 -1.139,-0.497 -2.36,-0.497 h -0.497 v -0.248 h -1.242 c -0.413,0 -0.363,-0.224 -0.372,-0.621 0.71,-0.166 2.069,-1.49 2.732,-1.49 h 0.373 v -0.248 l 1.362,-0.153 c 1.686,-0.182 2.192,0.494 3.021,0.984 0.451,0.266 0.953,0.363 1.333,0.655 0.246,0.189 0.788,0.647 1.068,0.794 0.611,0.323 1.748,1.33 2.076,1.898 0.171,0.294 1.403,2.278 1.572,2.278 h 0.496 v -0.373 c 0.266,-0.022 2.628,-1.915 3.106,-2.235 0.742,0 1.169,-0.083 1.241,-0.744 1.176,-0.098 1.417,-0.931 1.987,-0.994 v -0.869 C 5.202,-22.45 3.5,-22.514 3.5,-22.947 c 0,-0.676 2.952,-0.931 3.602,-1.365 h 0.621 c 0.189,-0.284 0.92,-0.746 1.366,-0.746 h 1.614 c 0.541,0 1.366,0.238 1.366,0.746 v 0.373 c 0,1.114 -0.372,1.446 -0.372,2.482 -0.637,0.337 -2.178,0.933 -2.36,1.614 H 8.841 c -0.152,0.286 -1.704,1.471 -2.075,1.651 -0.728,0.353 -0.458,0.491 -0.998,0.864 -0.339,0.234 -0.641,0.343 -1.078,0.662 -0.434,0.317 -0.553,0.478 -1.05,0.812 -0.352,0.236 -0.732,0.4 -1.177,0.685 -0.515,0.33 -0.826,0.016 -1.317,0.546 -0.315,0.339 -0.875,0.594 -0.875,0.864 v 0.993 c 0,2.173 1.175,1.691 2.36,2.484 h 0.496 c 0.509,0.34 2.99,1.013 3.843,1.125 0.461,0.06 1.295,0.259 2.096,0.386 1.151,0.183 0.852,0.879 1.388,1.096 v 0.994 c 0,1.067 -0.462,2.234 -1.489,2.234 H 8.468 C 8.376,-4.447 7.509,-5.078 7.025,-5.24 6.439,-5.435 6.093,-5.643 5.44,-5.766 4.567,-5.932 2.407,-6.005 2.134,-6.681 H 1.389 c -0.615,0 -0.312,1.598 -0.222,2.208 0.029,0.201 0.116,0.982 0.225,1.141 0.206,0.302 0.494,0.179 0.494,0.872 v 0.497 C 1.886,-1.555 0.304,-0.171 0,0"
             style="fill:#3c73b5;fill-opacity:1;fill-rule:evenodd;stroke:none"
             id="path816" /></g><path
           d="M 0,0 C 0.891,0.536 1.974,0.832 3.311,0.81 3.974,0.475 4.099,0.046 3.687,-0.475 3.097,-1.303 1.731,-1.695 0.139,-1.927 -0.033,-1.471 -0.052,-0.828 0,0 m -6.471,-13.119 c -0.549,0.318 3.287,3.063 3.312,2.57 l 0.107,-2.21 c -1.26,-0.275 -2.447,-0.372 -3.419,-0.36 m -11.946,12.18 c 0,1.375 2.044,3.722 2.828,4.498 0.273,0.27 3.935,3.182 4.002,3.2 v 0.496 c 0,0.218 -0.408,0.557 -0.598,0.892 -0.2,0.354 -0.208,0.664 -0.423,0.944 -0.241,0.313 -1.066,1.133 -1.587,1.145 -0.103,0.386 -0.656,0.62 -1.118,0.62 -0.405,0 -1.944,-3.508 -3.229,-3.973 V 6.511 c 0,-0.679 -3.756,-5.057 -4.346,-5.215 V 0.923 c 0,-1.407 0.319,-1.537 0.869,-2.359 0,-0.616 0.194,-1.117 0.745,-1.117 h 0.249 c 0.542,0 0.451,0.248 0.993,0.248 h 0.993 c 0,-2.113 -1.862,-1.91 -1.862,-3.6 v -0.373 h 0.248 v -0.745 c 0,-1.292 0.693,-1.228 0.745,-1.863 0.75,-0.174 0.352,-0.496 1.118,-0.496 h 0.124 c 0.556,0 2.36,2.047 2.36,2.359 v 0.621 c 0.654,0.236 0.565,0.972 1.491,0.993 -0.27,-1.156 -0.659,-1.1 0.62,-0.993 l -0.56,-2.217 -1.865,-2.834 -0.431,-0.04 v 1.242 c 0,0.355 -0.039,0.227 -0.248,0.373 l -1.71,-4.936 c 0.986,-0.353 0.492,-1.521 2.206,-1.521 v -0.248 l 1.985,-0.15 c 0.718,-0.038 1.643,3.083 1.792,3.947 0.237,1.376 0.321,3.758 0.321,5.266 v 0.621 c 0.877,0.234 2.535,1.614 2.609,1.614 h 0.124 c 0.478,0 0.518,-0.869 1.49,-0.869 h 0.249 c 0.369,0 0.705,0.508 0.745,0.869 h 0.744 c 0.45,-1.927 1.32,-2.552 3.478,-2.732 V -9.01 h -0.372 l -1.167,-1.826 -0.448,-0.036 c -0.296,0 -1.971,-1.391 -2.228,-1.621 -0.484,-0.436 -1.958,-0.787 -2.864,-0.862 -0.065,-0.279 -0.124,-0.286 -0.124,-0.621 v -0.125 c 0,-0.839 0.685,-2.607 1.739,-2.607 h 1.242 c 1.184,0 3.476,0.994 3.85,0.994 h 0.62 l 0.118,0.375 c 0.811,-0.003 1.29,0.37 1.497,0.37 h 2.732 c 1.819,0 1.024,-0.87 1.739,-0.87 h 1.366 l 1.489,0.136 c 0.286,0.179 0.871,0.528 0.871,0.982 v 1.242 c 0,0.256 -0.416,1.241 -0.87,1.241 H 4.558 l -4.594,-0.151 -0.001,2.138 0.435,0.311 1.18,0.062 c 0.745,0 1.862,0.876 1.862,1.613 v 0.373 c 0,0.486 -0.187,0.014 -0.248,0.745 -0.673,0.156 -0.365,0.546 -1.528,0.956 -0.36,0.126 -1.577,0.568 -1.577,0.906 v 1.49 c 0,0.266 0.224,0.533 0.497,0.497 l 2.479,-0.288 0.626,0.04 1.115,0.139 c 0.467,0.862 0.637,-0.091 1.053,1.17 0.209,0.633 0.158,1.28 0.688,1.422 V 0.303 L 6.921,0.42 7.063,3.157 C 7.084,3.808 6.42,5.145 5.8,5.145 4.587,5.145 2.79,3.779 1.205,3.779 1.076,3.586 1.041,3.407 0.708,3.407 H 0.087 v 1.365 c 0,0.58 -0.724,0.319 -0.745,1.242 0.574,0.063 0.616,0.62 1.242,0.62 0.619,0 1.468,-0.065 2.063,-0.175 0.829,-0.151 0.996,0.145 1.663,0.3 v 0.869 c 0,0.699 -0.346,1.091 -0.497,1.739 H 3.44 C 3.385,10.032 2.903,10.236 2.199,10.236 H 1.95 C 1.167,10.236 0.202,9.784 -0.734,9.567 -2.144,9.24 -2.296,9.602 -3.39,8.87 L -9.354,8.399 C -9.417,8.095 -9.475,8.088 -9.475,7.752 V 7.007 c 0,-0.909 0.875,-2.359 1.738,-2.359 h 0.745 c 0,-0.681 -0.359,-1.602 -0.869,-1.738 V 2.414 C -8.946,1.839 -7.476,1.768 -9.302,1.123 -9.318,1.117 -10.16,0.713 -10.226,0.68 -10.52,0.53 -10.717,0.25 -10.717,-0.194 v -0.993 h 0.248 V -2.18 h -0.372 v -0.622 l 0.141,-1.363 -1.191,-0.93 -0.814,-0.066 c -0.144,0 -1.035,0.533 -1.366,0.621 v 0.745 c 0,0.34 2.081,2.318 2.236,2.359 v 1.863 c 0,0.133 -1.518,1.816 -1.739,2.235 l -1.613,0.144 -0.149,-0.384 -0.473,-0.008 v -0.87 h -0.373 c -0.097,-1.169 -1.215,-1.452 -1.49,-2.483 z m 12.17,5.711 c 0.423,0.224 0.838,0.373 1.491,0.373 h 0.496 c 0.419,0 0.87,-0.22 0.87,-0.621 V 2.414 L -4.744,2.111 C -5.152,1.9 -5.45,1.668 -6.122,1.668 h -0.87 l 0.675,2.505 z m -0.745,-6.705 c 0,0.827 0.973,0.92 1.66,1.073 0.533,0.119 2.066,0.42 2.066,-0.203 v -3.229 c 0,-0.418 -0.219,-0.869 -0.621,-0.869 H -4.88 c -1.592,0 -2.112,0.998 -2.112,2.608 z"
           style="fill:#3c73b5;fill-opacity:1;fill-rule:evenodd;stroke:none"
           id="path820"
           transform="translate(288.2378,116.5615)" /><g
           id="g822"
           transform="translate(234.8184,106.9033)"><path
             d="M 0,0 C -0.252,0.455 -0.307,0.931 -0.074,1.439 0.457,1.908 1.07,2.081 1.764,1.957 2.418,1.549 2.701,0.924 2.168,-0.184 1.229,-0.419 0.506,-0.357 0,0 m -4.669,10.186 c 0.012,0.689 0.024,1.377 0.037,2.066 0.912,0.127 1.719,0.154 1.801,-0.516 0.036,-0.911 -0.688,-1.361 -1.838,-1.55 m 20.322,9.683 c 0.436,2.385 -1.242,2.557 -3.303,2.557 h -0.746 v -0.372 c 0,-0.333 0.46,-1.87 0.621,-2.111 l 0.131,-8.194 -0.816,-0.6 -0.066,0.105 -0.141,-0.366 C 10.21,10.854 9.973,10.083 9.271,9.612 9.167,9.542 6.73,9.017 6.512,9.017 6.341,8.761 6.14,8.695 6.14,8.396 V 7.651 c 0,-0.587 0.736,-2.483 1.242,-2.483 h 0.621 c 0.473,0 1.799,1.134 1.987,1.49 L 10.031,6.54 12.332,7.331 C 12.415,7 12.474,6.993 12.474,6.658 V 3.802 C 11.863,3.751 9.157,0.839 8.375,0.822 8.03,0.169 5.789,-0.668 4.774,-0.668 H 4.65 c -0.344,0 -0.299,0.096 -0.373,0.373 H 3.656 C 3.664,0.036 4.35,1.815 4.65,1.815 H 5.519 C 5.72,2.371 5.892,1.911 5.892,2.437 V 5.54 H 5.519 c -0.287,0 -0.373,0.086 -0.373,0.373 v 3.104 l 0.312,6.701 0.72,1.061 0.086,1.053 c 0,0.815 -1.818,2.484 -2.608,2.484 H 2.787 C 2.292,20.316 1.979,19.723 1.591,19.524 1.476,19.466 0.179,18.985 0.151,18.977 -0.896,18.65 -1.933,18.35 -1.933,17.087 v -0.372 h 0.373 c 0.544,0 0.888,0.869 1.987,0.869 h 0.621 c 0.962,0 1.739,-1.042 1.739,-1.987 V 11.003 C 2.787,9.903 2.794,8.059 2.64,7.054 2.571,6.61 1.571,4.547 1.172,4.547 H 0.924 c -0.387,0 -0.745,0.393 -0.745,0.869 v 0.497 c 0.33,0.088 0.745,0.349 0.745,0.745 v 0.869 c 0,0.348 -0.695,0.834 -1.118,0.869 l 0.27,0.214 -0.908,0.226 c -1.351,0.057 -0.89,0.566 -1.473,0.802 v 0.496 c 0,0.428 0.092,0.481 0.124,0.869 l 1.114,0.152 1.494,-0.028 V 11.5 c 0.398,0.009 0.621,-0.041 0.621,0.373 v 0.621 c 0,0.891 -0.355,0.715 -0.373,1.489 -0.639,0.171 -1.056,0.709 -2.23,0.75 -0.963,0.034 -2.012,-0.004 -2.986,-0.004 -0.399,0.267 -0.693,0.372 -1.366,0.372 h -1.117 c -0.599,0 -0.878,-0.386 -1.118,-0.746 V 7.403 c 0,-1.132 -0.186,-2.463 -0.128,-3.356 0.08,-1.194 1.048,-1.178 1.867,-1.61 -1.079,-2.04 -6.334,-1.221 -6.334,-2.856 v -0.249 c 0,-0.614 1.645,-1.986 2.609,-1.986 h 0.869 c 0.617,0 1.576,0.62 2.607,0.62 0.116,0.434 2.458,2.218 3.229,2.236 0,-0.968 -1.056,-3.03 -1.738,-3.105 -0.089,-0.803 -1.288,-0.677 -1.366,-1.614 l -2.431,-1.376 0.071,-0.114 c -0.432,0 -0.745,0.076 -0.745,-0.372 0,-0.366 0.715,-0.746 1.117,-0.746 h 1.118 c 1.507,0 2.939,1.784 3.817,2.517 0.7,0.584 0.954,1.33 1.497,1.731 0.482,0.356 1.355,0.985 1.517,1.588 1.394,-0.116 1.41,-1.196 2.144,-2.078 0.434,-0.521 1.252,-2.267 1.954,-2.267 h 0.373 c 0.499,0 1.09,1.647 1.265,2.211 0.499,1.606 -0.175,1.389 1.963,1.389 0.545,0.365 2.098,0.667 2.872,0.979 0.721,0.291 2.107,1.35 2.469,1.38 l 0.297,-1.605 -0.049,-2.616 c 0,-0.364 -0.629,-0.993 -0.993,-0.993 H 11.48 c -1.224,0 -1.297,0.791 -2.235,0.869 v -0.621 c 0,-0.91 1.598,-2.04 2.116,-2.603 0.397,-0.432 0.707,-0.589 1.151,-1.209 0.175,-0.245 0.94,-1.155 1.204,-1.155 h 0.372 c 0.036,0.134 1.139,1.275 1.428,1.677 0.363,0.505 0.404,1.791 0.302,2.66 -0.205,1.751 -0.239,3.891 -0.239,5.845 V 2.56 c 0,1.09 2.98,2.318 2.98,2.98 V 6.285 L 17.993,6.713 16.949,6.934 16.696,6.906 c -0.442,0 -0.487,-0.425 -0.497,-0.869 -0.398,0.009 -0.62,-0.04 -0.62,0.373 v 2.235 c 0,0.642 4.098,1.667 4.098,3.476 v 0.621 c 0,0.439 -0.208,1.613 -0.621,1.613 h -0.497 c -0.503,0 -0.643,-0.114 -0.745,-0.496 h -0.497 c -0.061,-0.733 -0.868,-1.117 -1.614,-1.117 -0.152,0 -0.373,0.257 -0.373,0.496 v 0.993 c 0,1.438 0.087,4.344 0.323,5.638 M -4.665,6.41 -3.517,5.448 c 0.5,-0.032 1.833,-0.429 1.833,-0.901 V 4.174 c 0,-0.769 -1.308,-1.241 -1.739,-1.241 h -0.372 c -0.429,0 -0.481,0.091 -0.87,0.124 z"
             style="fill:#3c73b5;fill-opacity:1;fill-rule:evenodd;stroke:none"
             id="path824" /></g><g
           id="g826"
           transform="translate(191.2598,107.7148)"><path
             d="M 0,0 C 0.6,0.387 0.815,0.345 0.644,-0.129 0.314,-0.796 0.346,-1.205 1.046,-1.098 1.202,-1.442 1.294,-1.787 0.934,-2.132 0.593,-2.457 0.121,-2.705 -0.434,-2.729 -0.868,-2.75 -1.136,-2.622 -1.254,-2.407 -0.973,-1.494 -0.718,-0.56 0,0 m 5.064,18.697 c -0.128,1.545 -1.468,2.219 -1.49,3.228 -0.921,0.246 -0.7,2.235 -4.098,2.235 -0.065,-0.278 -0.124,-0.285 -0.124,-0.62 v -0.373 c 0,-0.869 1.49,-1.933 1.49,-3.725 v -2.484 c 0,-0.96 -2.455,-1.573 -3.27,-1.946 -0.816,-0.373 -2.919,-1.158 -3.934,-1.158 l -0.151,-0.489 c -0.57,-0.146 -4.195,-0.232 -4.195,-0.876 v -0.125 c 0,-0.335 0.956,-1.373 1.187,-1.668 0.288,-0.366 1.182,-1.063 1.794,-1.063 h 0.993 c 0.114,0.284 1.277,0.869 1.615,0.869 h 0.62 V 8.64 c 0,-0.428 -0.216,-1.739 -0.62,-1.739 H -5.616 C -5.761,6.543 -8.252,5.908 -8.846,5.908 h -1.489 c -0.204,-0.503 -0.622,-0.14 -0.622,-0.745 V 4.915 c 0,-0.507 0.622,-0.439 0.622,-1.49 0,-0.515 -0.682,-2.867 -0.994,-2.98 v -4.222 c 0,-1.431 0.513,-3.973 1.863,-3.973 h 0.372 c 0.87,0 1.778,1.248 1.739,1.863 L -7.744,1.818 C -8.186,2.31 -8.52,3.114 -9.218,3.301 v 0.496 c 0.805,0.067 2.516,0.621 2.981,0.621 h 0.993 c 0.335,0 0.343,-0.059 0.621,-0.124 L -4.774,3.804 C -4.597,3.573 -4.499,3.579 -4.499,3.301 V 2.804 L -3.68,2.279 -4.25,2.184 c -0.462,0 -0.994,-1.11 -0.994,-1.739 V -0.3 c 0,-0.534 0.923,-1.117 1.49,-1.117 h 1.119 c 0.101,0.381 0.241,0.496 0.744,0.496 h 0.373 L -2.455,-2.62 c -0.788,-0.11 -1.05,-0.216 -1.05,-1.157 0,-1.357 1.284,-2.334 1.49,-3.103 h 0.497 l 0.148,-0.364 0.473,-0.009 c 0.527,0 0.515,0.745 1.366,0.745 h 0.124 c 0.546,0 1.118,-1.793 1.118,-2.483 0.652,-0.236 0.344,-1.49 1.242,-1.49 h 0.124 c 0.217,0 1.863,1.634 1.863,2.11 v 1.863 h 0.248 l 0.148,1.487 c 0.403,0.64 -0.02,0.634 0.592,0.878 0.47,0.188 0.426,0.221 0.82,0.546 0.535,0.444 0.8,1.151 0.8,2.055 0,0.291 -0.206,0.497 -0.497,0.497 H 5.437 v 0.248 H 4.94 c -0.05,0.61 -0.249,0.455 -0.249,0.993 v 0.249 c 0,0.278 0.099,0.273 0.249,0.497 l 1.75,0.326 0.146,1.159 c -0.483,0.11 -0.654,0.198 -0.654,0.75 0,0.879 1.073,1.598 1.471,2.129 0.562,0.75 0.96,1.347 2.255,1.347 l 0.357,0.266 3.612,0.387 1.495,-0.033 c 0.486,0 0.014,-0.187 0.746,-0.247 0,-0.76 0.199,-1.159 0.124,-1.863 L 16.098,3.551 14.834,0.658 14.471,-0.665 14.13,-0.672 13.055,-3.118 12.164,-4.194 11.55,-4.798 11.646,-4.894 c -0.278,-0.065 -0.285,-0.124 -0.621,-0.124 h -0.621 c -0.097,0.364 -0.944,1.351 -1.614,1.366 0.012,-0.553 0.871,-2.091 1.102,-2.623 0.242,-0.554 0.014,-1.068 0.296,-1.567 0.223,-0.396 0.556,-0.494 0.837,-1.025 h 0.621 c 0.225,-0.15 0.219,-0.248 0.497,-0.248 h 0.994 c 0.759,0 1.01,0.956 1.614,1.117 v 0.621 c 0.603,0.218 1.835,2.999 2.411,3.798 0.338,0.471 1.628,3.801 1.687,4.521 h 0.373 c 0,1.081 0.745,1.97 0.745,2.979 v 1.366 c 0,0.669 -0.372,0.516 -0.372,1.49 h -0.373 c -0.048,0.572 -1.301,2.484 -1.863,2.484 h -0.497 c -0.095,0.263 -0.286,0.496 -0.62,0.496 H 15 L 12.771,9.462 12.406,9.243 10.407,9.104 C 10.075,9.107 10.146,11.19 9.723,11.683 9.446,12.006 8.33,12.861 7.796,12.861 H 7.672 c -0.291,0 -0.497,-0.206 -0.497,-0.497 V 11.248 L 6.385,9.903 C 5.533,9.806 6.038,8.901 5.237,8.591 5.118,8.545 3.285,8.143 3.201,8.143 H 1.587 v 0.373 c 0,0.188 0.882,2.245 1.05,2.426 0.742,0.794 0.695,1.529 1.434,1.919 0.015,0.679 0.325,1.425 0.824,1.66 0.244,0.115 1.595,0.571 1.784,0.575 l 0.147,0.364 c 0.846,0.028 1.854,0.41 2.574,0.641 0.285,0.091 1.874,1.011 1.874,1.355 v 0.372 c 0,0.22 -1.642,1.986 -1.863,1.986 H 7.796 c -0.471,0 -0.555,-0.235 -1.213,-0.4 C 6.178,19.312 5.74,19.195 5.685,18.697 Z m -8.818,-7.698 c 0,0.456 2.631,1.43 3.354,1.49 v -0.497 c 0,-0.601 -1.475,-2.889 -1.491,-3.6 L -2,8.306 -3.67,10.443 Z m 3.23,-6.084 C 0.162,5.278 2.217,5.66 3.325,5.66 H 3.946 C 3.921,4.516 3.019,3.973 2.953,3.177 l -3.348,-0.413 -0.626,0.04 z"
             style="fill:#3c73b5;fill-opacity:1;fill-rule:evenodd;stroke:none"
             id="path828" /></g><g
           id="g830"
           transform="translate(135.0288,107.3964)"><path
             d="m 0,0 c 0.535,-0.999 1.468,-1.667 2.16,-2.435 0.607,-0.673 0.541,-0.391 1.09,-1.269 0.443,-0.71 0.462,-0.728 1.026,-1.334 0.511,-0.548 0.375,-0.737 1.164,-1.194 0.512,-0.297 0.934,-0.827 1.409,-0.827 h 0.373 c 0.501,0 0.784,0.994 1.738,0.994 h 0.621 l 0.118,-0.375 1.056,-0.37 -0.056,-0.125 h 1.49 c 0.576,0 0.374,0.232 1.118,0.248 v 0.374 l 2.358,0.152 0.375,-0.028 v 0.248 h 2.359 c 0.52,0 2.465,-0.764 2.608,-1.118 H 22 c 0.855,0 1.917,2.177 2.874,2.59 0.43,0.186 2.468,2.439 2.62,2.844 0.464,1.242 3.875,5.584 5.312,5.617 0.177,0.663 1.241,1.058 1.241,1.613 0,1.771 -1.415,2.136 -2.008,3.208 -0.861,1.554 -0.424,0.337 -1.319,1.289 -0.454,0.484 -0.507,1.215 -1.392,1.215 h -0.621 l -1.364,-0.142 -0.002,-0.23 h -0.745 c -0.382,0 -1.995,-1.02 -2.857,-1.242 C 23.311,9.592 20.883,8.425 20.883,9.331 v 0.497 c 0,0.907 0.745,0.835 0.745,1.986 v 0.248 c 0,0.931 -0.773,0.855 -1.591,1.017 -0.192,0.038 -1.801,0.721 -1.887,0.721 h -0.869 l -0.25,-0.495 C 17.033,11.568 16.804,8.52 16.294,7.462 16.042,6.937 14.893,6.533 14.27,6.258 13.667,5.991 13.488,6.202 12.881,6.032 12.375,5.891 12.192,5.605 11.693,5.605 c -0.066,0 -0.273,0.18 -0.373,0.249 0,4.802 -2.608,2.195 -2.608,3.477 0,0.612 1.486,1.934 2.111,1.986 l -0.094,0.095 1.366,1.365 0.094,-0.094 c 0.049,0.585 1.592,2.732 2.112,2.732 h 3.105 c 1.264,0 2.219,-0.167 3.358,-0.13 0.549,0.018 2.354,0.605 2.354,1.123 v 0.869 c 0,0.93 -0.703,2.856 -1.49,2.856 h -0.87 l -3.35,-0.276 -0.002,-0.221 H 16.164 L 9.461,19.2 6.104,19.263 C 6.041,18.991 5.962,18.94 5.955,18.765 l 0.174,-1.734 c 0.329,-0.189 1.254,-1.473 1.838,-1.864 0.568,0 1.739,0.226 1.739,-0.373 0,-0.279 -0.099,-0.273 -0.248,-0.497 V 13.676 C 9.107,13.154 8.256,12.049 7.83,11.579 6.981,10.645 6.888,10.826 6.228,9.579 H 5.98 V 9.207 L 4.877,8.908 4.717,7.968 4.044,7.417 C 2.831,7.315 3.142,6.343 1.512,6.348 -0.777,6.355 -0.14,5.858 -1.223,5.605 L -1.653,4.813 -1.72,4.24 C -1.914,4.11 -2.092,4.075 -2.092,3.744 V 2.626 C -1.208,2.42 -1.265,2.09 -0.919,1.44 -0.655,0.947 -0.193,0.36 0,0 m 25.354,6.351 c 0.101,0.099 0.295,0.248 0.497,0.248 h 0.496 V 6.103 c 0,-0.333 -0.179,-0.368 -0.372,-0.498 0,-0.79 -1.477,-2.513 -1.987,-2.855 0,-0.674 -0.931,-2.035 -1.289,-2.561 -0.326,-0.477 -0.462,-0.762 -0.769,-1.217 -0.373,-0.555 -0.909,-0.523 -0.675,-0.94 -0.527,-0.141 -0.217,-0.248 -0.621,-0.248 h -0.372 c -0.311,0 -0.613,0.464 -1.74,0.373 -0.621,-0.05 -1.044,-0.125 -1.861,-0.125 h -0.497 c -0.287,0 -0.373,0.086 -0.373,0.372 0,0.279 1.04,0.549 1.118,1.491 l 0.492,0.139 c 0.061,0.664 0.971,2.053 1.232,2.607 0.402,0.854 0.32,2.344 1.381,2.344 h 0.372 C 20.493,5.25 22.19,5.839 22.6,6 c 0.807,0.316 1.642,0.351 2.754,0.351 M 3.993,5.357 c 0.501,0.335 1.154,0.746 1.987,0.746 0.066,0 0.272,-0.18 0.373,-0.249 0,-0.923 0.372,-1.033 0.372,-1.614 0,-0.431 -1.567,-0.869 -1.739,-0.869 H 3.993 c -0.299,0 -0.869,1.093 -0.869,1.241 v 0.249 c 0,0.278 0.098,0.272 0.248,0.496 z m 7.7,-2.855 c 0,0.484 3.233,1.242 3.725,1.242 0.111,0 0.249,-0.139 0.249,-0.249 0,-1.284 -1.542,-5.339 -2.608,-5.339 h -0.497 l -0.479,2.213 c -0.116,0.354 -0.39,1.22 -0.39,1.76 z M 5.731,1.136 C 6.524,1.202 6.972,1.757 7.47,1.757 h 0.249 c 0.351,0 0.444,-0.358 0.62,-0.621 L 8.643,-0.466 8.952,-0.625 C 8.973,-1.134 9.83,-2.384 9.83,-2.589 9.83,-2.924 9.771,-2.931 9.706,-3.21 8.871,-3.229 8.988,-3.583 8.339,-3.583 c -0.325,0 -2.608,3.551 -2.608,3.974 z"
             style="fill:#3b6eab;fill-opacity:1;fill-rule:evenodd;stroke:none"
             id="path832" /></g></g><g
         id="g818"
         transform="translate(288.2378,116.5615)" /></g></g></svg>
